<?xml version="1.0" encoding="UTF-8" standalone="no"?>
<!DOCTYPE svg PUBLIC "-//W3C//DTD SVG 1.1//EN"
 "http://www.w3.org/Graphics/SVG/1.1/DTD/svg11.dtd">
<!-- Generated by graphviz version 2.47.0 (20210316.0004)
 -->
<!-- Title: dbml Pages: 1 -->
<svg width="2029pt" height="2171pt"
 viewBox="0.00 0.00 2028.79 2170.74" xmlns="http://www.w3.org/2000/svg" xmlns:xlink="http://www.w3.org/1999/xlink">
<g id="graph0" class="graph" transform="scale(1 1) rotate(0) translate(4 2166.74)">
<title>dbml</title>
<!-- Dog -->
<g id="Dog" class="node">
<title>Dog</title>
<ellipse fill="none" stroke="black" stroke-width="0" cx="966.55" cy="-1735.65" rx="295.64" ry="427.19"/>
<polygon fill="#1d71b8" stroke="transparent" points="759.55,-1975.65 759.55,-2035.65 1173.55,-2035.65 1173.55,-1975.65 759.55,-1975.65"/>
<polygon fill="none" stroke="#29235c" points="759.55,-1975.65 759.55,-2035.65 1173.55,-2035.65 1173.55,-1975.65 759.55,-1975.65"/>
<text text-anchor="start" x="874.96" y="-1996.85" font-family="Helvetica,sans-Serif" font-weight="bold" font-size="32.00" fill="#ffffff"> &#160;&#160;&#160;&#160;&#160;&#160;Dog &#160;&#160;&#160;&#160;&#160;&#160;</text>
<polygon fill="#e7e2dd" stroke="transparent" points="759.55,-1915.65 759.55,-1975.65 1173.55,-1975.65 1173.55,-1915.65 759.55,-1915.65"/>
<polygon fill="none" stroke="#29235c" points="759.55,-1915.65 759.55,-1975.65 1173.55,-1975.65 1173.55,-1915.65 759.55,-1915.65"/>
<text text-anchor="start" x="770.55" y="-1936.85" font-family="Helvetica,sans-Serif" font-weight="bold" font-size="32.00" fill="#29235c">id</text>
<text text-anchor="start" x="795.44" y="-1936.85" font-family="Helvetica,sans-Serif" font-size="32.00" fill="#29235c"> &#160;&#160;&#160;</text>
<text text-anchor="start" x="1020.33" y="-1936.85" font-family="Helvetica,sans-Serif" font-style="italic" font-size="32.00" fill="#29235c">INTEGER</text>
<polygon fill="#e7e2dd" stroke="transparent" points="759.55,-1855.65 759.55,-1915.65 1173.55,-1915.65 1173.55,-1855.65 759.55,-1855.65"/>
<polygon fill="none" stroke="#29235c" points="759.55,-1855.65 759.55,-1915.65 1173.55,-1915.65 1173.55,-1855.65 759.55,-1855.65"/>
<text text-anchor="start" x="770.55" y="-1875.85" font-family="Helvetica,sans-Serif" font-size="32.00" fill="#29235c">owner_id &#160;&#160;&#160;</text>
<text text-anchor="start" x="1020.33" y="-1876.85" font-family="Helvetica,sans-Serif" font-style="italic" font-size="32.00" fill="#29235c">INTEGER</text>
<polygon fill="#e7e2dd" stroke="transparent" points="759.55,-1795.65 759.55,-1855.65 1173.55,-1855.65 1173.55,-1795.65 759.55,-1795.65"/>
<polygon fill="none" stroke="#29235c" points="759.55,-1795.65 759.55,-1855.65 1173.55,-1855.65 1173.55,-1795.65 759.55,-1795.65"/>
<text text-anchor="start" x="770.55" y="-1815.85" font-family="Helvetica,sans-Serif" font-size="32.00" fill="#29235c">name &#160;&#160;&#160;</text>
<text text-anchor="start" x="1006.13" y="-1816.85" font-family="Helvetica,sans-Serif" font-style="italic" font-size="32.00" fill="#29235c">VARCHAR</text>
<polygon fill="#e7e2dd" stroke="transparent" points="759.55,-1735.65 759.55,-1795.65 1173.55,-1795.65 1173.55,-1735.65 759.55,-1735.65"/>
<polygon fill="none" stroke="#29235c" points="759.55,-1735.65 759.55,-1795.65 1173.55,-1795.65 1173.55,-1735.65 759.55,-1735.65"/>
<text text-anchor="start" x="770.55" y="-1755.85" font-family="Helvetica,sans-Serif" font-size="32.00" fill="#29235c">breed &#160;&#160;&#160;</text>
<text text-anchor="start" x="1006.13" y="-1756.85" font-family="Helvetica,sans-Serif" font-style="italic" font-size="32.00" fill="#29235c">VARCHAR</text>
<polygon fill="#e7e2dd" stroke="transparent" points="759.55,-1675.65 759.55,-1735.65 1173.55,-1735.65 1173.55,-1675.65 759.55,-1675.65"/>
<polygon fill="none" stroke="#29235c" points="759.55,-1675.65 759.55,-1735.65 1173.55,-1735.65 1173.55,-1675.65 759.55,-1675.65"/>
<text text-anchor="start" x="770.55" y="-1695.85" font-family="Helvetica,sans-Serif" font-size="32.00" fill="#29235c">size &#160;&#160;&#160;</text>
<text text-anchor="start" x="1006.13" y="-1696.85" font-family="Helvetica,sans-Serif" font-style="italic" font-size="32.00" fill="#29235c">VARCHAR</text>
<polygon fill="#e7e2dd" stroke="transparent" points="759.55,-1615.65 759.55,-1675.65 1173.55,-1675.65 1173.55,-1615.65 759.55,-1615.65"/>
<polygon fill="none" stroke="#29235c" points="759.55,-1615.65 759.55,-1675.65 1173.55,-1675.65 1173.55,-1615.65 759.55,-1615.65"/>
<text text-anchor="start" x="770.55" y="-1635.85" font-family="Helvetica,sans-Serif" font-size="32.00" fill="#29235c">notes &#160;&#160;&#160;</text>
<text text-anchor="start" x="1006.13" y="-1636.85" font-family="Helvetica,sans-Serif" font-style="italic" font-size="32.00" fill="#29235c">VARCHAR</text>
<polygon fill="#e7e2dd" stroke="transparent" points="759.55,-1555.65 759.55,-1615.65 1173.55,-1615.65 1173.55,-1555.65 759.55,-1555.65"/>
<polygon fill="none" stroke="#29235c" points="759.55,-1555.65 759.55,-1615.65 1173.55,-1615.65 1173.55,-1555.65 759.55,-1555.65"/>
<text text-anchor="start" x="770.55" y="-1575.85" font-family="Helvetica,sans-Serif" font-size="32.00" fill="#29235c">created_date &#160;&#160;&#160;</text>
<text text-anchor="start" x="1000.79" y="-1576.85" font-family="Helvetica,sans-Serif" font-style="italic" font-size="32.00" fill="#29235c">DATETIME</text>
<polygon fill="#e7e2dd" stroke="transparent" points="759.55,-1495.65 759.55,-1555.65 1173.55,-1555.65 1173.55,-1495.65 759.55,-1495.65"/>
<polygon fill="none" stroke="#29235c" points="759.55,-1495.65 759.55,-1555.65 1173.55,-1555.65 1173.55,-1495.65 759.55,-1495.65"/>
<text text-anchor="start" x="770.43" y="-1515.85" font-family="Helvetica,sans-Serif" font-size="32.00" fill="#29235c">updated_date &#160;&#160;&#160;</text>
<text text-anchor="start" x="1001.17" y="-1516.85" font-family="Helvetica,sans-Serif" font-style="italic" font-size="32.00" fill="#29235c">DATETIME</text>
<polygon fill="#e7e2dd" stroke="transparent" points="759.55,-1435.65 759.55,-1495.65 1173.55,-1495.65 1173.55,-1435.65 759.55,-1435.65"/>
<polygon fill="none" stroke="#29235c" points="759.55,-1435.65 759.55,-1495.65 1173.55,-1495.65 1173.55,-1435.65 759.55,-1435.65"/>
<text text-anchor="start" x="770.55" y="-1455.85" font-family="Helvetica,sans-Serif" font-size="32.00" fill="#29235c">created_by &#160;&#160;&#160;</text>
<text text-anchor="start" x="1006.13" y="-1456.85" font-family="Helvetica,sans-Serif" font-style="italic" font-size="32.00" fill="#29235c">VARCHAR</text>
<polygon fill="none" stroke="#29235c" stroke-width="2" points="758.55,-1434.65 758.55,-2036.65 1174.55,-2036.65 1174.55,-1434.65 758.55,-1434.65"/>
</g>
<!-- Owner -->
<g id="Owner" class="node">
<title>Owner</title>
<ellipse fill="none" stroke="black" stroke-width="0" cx="1670.06" cy="-1765.65" rx="295.64" ry="384.83"/>
<polygon fill="#1d71b8" stroke="transparent" points="1463.06,-1975.65 1463.06,-2035.65 1877.06,-2035.65 1877.06,-1975.65 1463.06,-1975.65"/>
<polygon fill="none" stroke="#29235c" points="1463.06,-1975.65 1463.06,-2035.65 1877.06,-2035.65 1877.06,-1975.65 1463.06,-1975.65"/>
<text text-anchor="start" x="1560.7" y="-1996.85" font-family="Helvetica,sans-Serif" font-weight="bold" font-size="32.00" fill="#ffffff"> &#160;&#160;&#160;&#160;&#160;&#160;Owner &#160;&#160;&#160;&#160;&#160;&#160;</text>
<polygon fill="#e7e2dd" stroke="transparent" points="1463.06,-1915.65 1463.06,-1975.65 1877.06,-1975.65 1877.06,-1915.65 1463.06,-1915.65"/>
<polygon fill="none" stroke="#29235c" points="1463.06,-1915.65 1463.06,-1975.65 1877.06,-1975.65 1877.06,-1915.65 1463.06,-1915.65"/>
<text text-anchor="start" x="1474.06" y="-1936.85" font-family="Helvetica,sans-Serif" font-weight="bold" font-size="32.00" fill="#29235c">id</text>
<text text-anchor="start" x="1498.95" y="-1936.85" font-family="Helvetica,sans-Serif" font-size="32.00" fill="#29235c"> &#160;&#160;&#160;</text>
<text text-anchor="start" x="1723.84" y="-1936.85" font-family="Helvetica,sans-Serif" font-style="italic" font-size="32.00" fill="#29235c">INTEGER</text>
<polygon fill="#e7e2dd" stroke="transparent" points="1463.06,-1855.65 1463.06,-1915.65 1877.06,-1915.65 1877.06,-1855.65 1463.06,-1855.65"/>
<polygon fill="none" stroke="#29235c" points="1463.06,-1855.65 1463.06,-1915.65 1877.06,-1915.65 1877.06,-1855.65 1463.06,-1855.65"/>
<text text-anchor="start" x="1474.06" y="-1875.85" font-family="Helvetica,sans-Serif" font-size="32.00" fill="#29235c">name &#160;&#160;&#160;</text>
<text text-anchor="start" x="1709.64" y="-1876.85" font-family="Helvetica,sans-Serif" font-style="italic" font-size="32.00" fill="#29235c">VARCHAR</text>
<polygon fill="#e7e2dd" stroke="transparent" points="1463.06,-1795.65 1463.06,-1855.65 1877.06,-1855.65 1877.06,-1795.65 1463.06,-1795.65"/>
<polygon fill="none" stroke="#29235c" points="1463.06,-1795.65 1463.06,-1855.65 1877.06,-1855.65 1877.06,-1795.65 1463.06,-1795.65"/>
<text text-anchor="start" x="1474.06" y="-1815.85" font-family="Helvetica,sans-Serif" font-size="32.00" fill="#29235c">address &#160;&#160;&#160;</text>
<text text-anchor="start" x="1709.64" y="-1816.85" font-family="Helvetica,sans-Serif" font-style="italic" font-size="32.00" fill="#29235c">VARCHAR</text>
<polygon fill="#e7e2dd" stroke="transparent" points="1463.06,-1735.65 1463.06,-1795.65 1877.06,-1795.65 1877.06,-1735.65 1463.06,-1735.65"/>
<polygon fill="none" stroke="#29235c" points="1463.06,-1735.65 1463.06,-1795.65 1877.06,-1795.65 1877.06,-1735.65 1463.06,-1735.65"/>
<text text-anchor="start" x="1474.06" y="-1755.85" font-family="Helvetica,sans-Serif" font-size="32.00" fill="#29235c">phone &#160;&#160;&#160;</text>
<text text-anchor="start" x="1709.64" y="-1756.85" font-family="Helvetica,sans-Serif" font-style="italic" font-size="32.00" fill="#29235c">VARCHAR</text>
<polygon fill="#e7e2dd" stroke="transparent" points="1463.06,-1675.65 1463.06,-1735.65 1877.06,-1735.65 1877.06,-1675.65 1463.06,-1675.65"/>
<polygon fill="none" stroke="#29235c" points="1463.06,-1675.65 1463.06,-1735.65 1877.06,-1735.65 1877.06,-1675.65 1463.06,-1675.65"/>
<text text-anchor="start" x="1474.06" y="-1695.85" font-family="Helvetica,sans-Serif" font-size="32.00" fill="#29235c">email &#160;&#160;&#160;</text>
<text text-anchor="start" x="1709.64" y="-1696.85" font-family="Helvetica,sans-Serif" font-style="italic" font-size="32.00" fill="#29235c">VARCHAR</text>
<polygon fill="#e7e2dd" stroke="transparent" points="1463.06,-1615.65 1463.06,-1675.65 1877.06,-1675.65 1877.06,-1615.65 1463.06,-1615.65"/>
<polygon fill="none" stroke="#29235c" points="1463.06,-1615.65 1463.06,-1675.65 1877.06,-1675.65 1877.06,-1615.65 1463.06,-1615.65"/>
<text text-anchor="start" x="1474.06" y="-1635.85" font-family="Helvetica,sans-Serif" font-size="32.00" fill="#29235c">created_date &#160;&#160;&#160;</text>
<text text-anchor="start" x="1704.29" y="-1636.85" font-family="Helvetica,sans-Serif" font-style="italic" font-size="32.00" fill="#29235c">DATETIME</text>
<polygon fill="#e7e2dd" stroke="transparent" points="1463.06,-1555.65 1463.06,-1615.65 1877.06,-1615.65 1877.06,-1555.65 1463.06,-1555.65"/>
<polygon fill="none" stroke="#29235c" points="1463.06,-1555.65 1463.06,-1615.65 1877.06,-1615.65 1877.06,-1555.65 1463.06,-1555.65"/>
<text text-anchor="start" x="1473.94" y="-1575.85" font-family="Helvetica,sans-Serif" font-size="32.00" fill="#29235c">updated_date &#160;&#160;&#160;</text>
<text text-anchor="start" x="1704.68" y="-1576.85" font-family="Helvetica,sans-Serif" font-style="italic" font-size="32.00" fill="#29235c">DATETIME</text>
<polygon fill="#e7e2dd" stroke="transparent" points="1463.06,-1495.65 1463.06,-1555.65 1877.06,-1555.65 1877.06,-1495.65 1463.06,-1495.65"/>
<polygon fill="none" stroke="#29235c" points="1463.06,-1495.65 1463.06,-1555.65 1877.06,-1555.65 1877.06,-1495.65 1463.06,-1495.65"/>
<text text-anchor="start" x="1474.06" y="-1515.85" font-family="Helvetica,sans-Serif" font-size="32.00" fill="#29235c">created_by &#160;&#160;&#160;</text>
<text text-anchor="start" x="1709.64" y="-1516.85" font-family="Helvetica,sans-Serif" font-style="italic" font-size="32.00" fill="#29235c">VARCHAR</text>
<polygon fill="none" stroke="#29235c" stroke-width="2" points="1462.06,-1494.65 1462.06,-2036.65 1878.06,-2036.65 1878.06,-1494.65 1462.06,-1494.65"/>
</g>
<!-- Dog&#45;&gt;Owner -->
<!-- Dog&#45;&gt;Owner -->
<g id="edge2" class="edge">
<title>Dog:e&#45;&gt;Owner:w</title>
<path fill="none" stroke="#29235c" stroke-width="3" d="M1174.55,-1885.65C1301.65,-1885.65 1330.06,-1942.53 1451.95,-1945.53"/>
<polygon fill="#29235c" stroke="#29235c" stroke-width="3" points="1452.02,-1949.03 1462.06,-1945.65 1452.1,-1942.03 1452.02,-1949.03"/>
<text text-anchor="middle" x="1468.28" y="-1955.25" font-family="Helvetica,sans-Serif" font-size="32.00" fill="#29235c">*</text>
<text text-anchor="middle" x="1165.66" y="-1895.25" font-family="Helvetica,sans-Serif" font-size="32.00" fill="#29235c">1</text>
</g>
<!-- Payment -->
<g id="Payment" class="node">
<title>Payment</title>
<ellipse fill="none" stroke="black" stroke-width="0" cx="306.88" cy="-923.65" rx="306.77" ry="342.48"/>
<polygon fill="#1d71b8" stroke="transparent" points="91.88,-1103.65 91.88,-1163.65 521.88,-1163.65 521.88,-1103.65 91.88,-1103.65"/>
<polygon fill="none" stroke="#29235c" points="91.88,-1103.65 91.88,-1163.65 521.88,-1163.65 521.88,-1103.65 91.88,-1103.65"/>
<text text-anchor="start" x="181.51" y="-1124.85" font-family="Helvetica,sans-Serif" font-weight="bold" font-size="32.00" fill="#ffffff"> &#160;&#160;&#160;&#160;&#160;&#160;Payment &#160;&#160;&#160;&#160;&#160;&#160;</text>
<polygon fill="#e7e2dd" stroke="transparent" points="91.88,-1043.65 91.88,-1103.65 521.88,-1103.65 521.88,-1043.65 91.88,-1043.65"/>
<polygon fill="none" stroke="#29235c" points="91.88,-1043.65 91.88,-1103.65 521.88,-1103.65 521.88,-1043.65 91.88,-1043.65"/>
<text text-anchor="start" x="102.88" y="-1064.85" font-family="Helvetica,sans-Serif" font-weight="bold" font-size="32.00" fill="#29235c">id</text>
<text text-anchor="start" x="127.77" y="-1064.85" font-family="Helvetica,sans-Serif" font-size="32.00" fill="#29235c"> &#160;&#160;&#160;</text>
<text text-anchor="start" x="368.67" y="-1064.85" font-family="Helvetica,sans-Serif" font-style="italic" font-size="32.00" fill="#29235c">INTEGER</text>
<polygon fill="#e7e2dd" stroke="transparent" points="91.88,-983.65 91.88,-1043.65 521.88,-1043.65 521.88,-983.65 91.88,-983.65"/>
<polygon fill="none" stroke="#29235c" points="91.88,-983.65 91.88,-1043.65 521.88,-1043.65 521.88,-983.65 91.88,-983.65"/>
<text text-anchor="start" x="102.52" y="-1003.85" font-family="Helvetica,sans-Serif" font-size="32.00" fill="#29235c">walk_request_id &#160;&#160;&#160;</text>
<text text-anchor="start" x="368.78" y="-1004.85" font-family="Helvetica,sans-Serif" font-style="italic" font-size="32.00" fill="#29235c">INTEGER</text>
<polygon fill="#e7e2dd" stroke="transparent" points="91.88,-923.65 91.88,-983.65 521.88,-983.65 521.88,-923.65 91.88,-923.65"/>
<polygon fill="none" stroke="#29235c" points="91.88,-923.65 91.88,-983.65 521.88,-983.65 521.88,-923.65 91.88,-923.65"/>
<text text-anchor="start" x="102.88" y="-943.85" font-family="Helvetica,sans-Serif" font-size="32.00" fill="#29235c">amount &#160;&#160;&#160;</text>
<text text-anchor="start" x="407.76" y="-944.85" font-family="Helvetica,sans-Serif" font-style="italic" font-size="32.00" fill="#29235c">FLOAT</text>
<polygon fill="#e7e2dd" stroke="transparent" points="91.88,-863.65 91.88,-923.65 521.88,-923.65 521.88,-863.65 91.88,-863.65"/>
<polygon fill="none" stroke="#29235c" points="91.88,-863.65 91.88,-923.65 521.88,-923.65 521.88,-863.65 91.88,-863.65"/>
<text text-anchor="start" x="102.88" y="-883.85" font-family="Helvetica,sans-Serif" font-size="32.00" fill="#29235c">payment_date &#160;&#160;&#160;</text>
<text text-anchor="start" x="349.12" y="-884.85" font-family="Helvetica,sans-Serif" font-style="italic" font-size="32.00" fill="#29235c">DATETIME</text>
<polygon fill="#e7e2dd" stroke="transparent" points="91.88,-803.65 91.88,-863.65 521.88,-863.65 521.88,-803.65 91.88,-803.65"/>
<polygon fill="none" stroke="#29235c" points="91.88,-803.65 91.88,-863.65 521.88,-863.65 521.88,-803.65 91.88,-803.65"/>
<text text-anchor="start" x="102.88" y="-823.85" font-family="Helvetica,sans-Serif" font-size="32.00" fill="#29235c">created_date &#160;&#160;&#160;</text>
<text text-anchor="start" x="349.12" y="-824.85" font-family="Helvetica,sans-Serif" font-style="italic" font-size="32.00" fill="#29235c">DATETIME</text>
<polygon fill="#e7e2dd" stroke="transparent" points="91.88,-743.65 91.88,-803.65 521.88,-803.65 521.88,-743.65 91.88,-743.65"/>
<polygon fill="none" stroke="#29235c" points="91.88,-743.65 91.88,-803.65 521.88,-803.65 521.88,-743.65 91.88,-743.65"/>
<text text-anchor="start" x="102.88" y="-763.85" font-family="Helvetica,sans-Serif" font-size="32.00" fill="#29235c">updated_date &#160;&#160;&#160;</text>
<text text-anchor="start" x="349.12" y="-764.85" font-family="Helvetica,sans-Serif" font-style="italic" font-size="32.00" fill="#29235c">DATETIME</text>
<polygon fill="#e7e2dd" stroke="transparent" points="91.88,-683.65 91.88,-743.65 521.88,-743.65 521.88,-683.65 91.88,-683.65"/>
<polygon fill="none" stroke="#29235c" points="91.88,-683.65 91.88,-743.65 521.88,-743.65 521.88,-683.65 91.88,-683.65"/>
<text text-anchor="start" x="102.88" y="-703.85" font-family="Helvetica,sans-Serif" font-size="32.00" fill="#29235c">created_by &#160;&#160;&#160;</text>
<text text-anchor="start" x="354.46" y="-704.85" font-family="Helvetica,sans-Serif" font-style="italic" font-size="32.00" fill="#29235c">VARCHAR</text>
<polygon fill="none" stroke="#29235c" stroke-width="2" points="90.88,-682.65 90.88,-1164.65 522.88,-1164.65 522.88,-682.65 90.88,-682.65"/>
</g>
<!-- WalkRequest -->
<g id="WalkRequest" class="node">
<title>WalkRequest</title>
<ellipse fill="none" stroke="black" stroke-width="0" cx="966.55" cy="-863.65" rx="316.57" ry="427.19"/>
<polygon fill="#1d71b8" stroke="transparent" points="744.55,-1103.65 744.55,-1163.65 1188.55,-1163.65 1188.55,-1103.65 744.55,-1103.65"/>
<polygon fill="none" stroke="#29235c" points="744.55,-1103.65 744.55,-1163.65 1188.55,-1163.65 1188.55,-1103.65 744.55,-1103.65"/>
<text text-anchor="start" x="809.18" y="-1124.85" font-family="Helvetica,sans-Serif" font-weight="bold" font-size="32.00" fill="#ffffff"> &#160;&#160;&#160;&#160;&#160;&#160;WalkRequest &#160;&#160;&#160;&#160;&#160;&#160;</text>
<polygon fill="#e7e2dd" stroke="transparent" points="744.55,-1043.65 744.55,-1103.65 1188.55,-1103.65 1188.55,-1043.65 744.55,-1043.65"/>
<polygon fill="none" stroke="#29235c" points="744.55,-1043.65 744.55,-1103.65 1188.55,-1103.65 1188.55,-1043.65 744.55,-1043.65"/>
<text text-anchor="start" x="755.55" y="-1064.85" font-family="Helvetica,sans-Serif" font-weight="bold" font-size="32.00" fill="#29235c">id</text>
<text text-anchor="start" x="780.44" y="-1064.85" font-family="Helvetica,sans-Serif" font-size="32.00" fill="#29235c"> &#160;&#160;&#160;</text>
<text text-anchor="start" x="1035.33" y="-1064.85" font-family="Helvetica,sans-Serif" font-style="italic" font-size="32.00" fill="#29235c">INTEGER</text>
<polygon fill="#e7e2dd" stroke="transparent" points="744.55,-983.65 744.55,-1043.65 1188.55,-1043.65 1188.55,-983.65 744.55,-983.65"/>
<polygon fill="none" stroke="#29235c" points="744.55,-983.65 744.55,-1043.65 1188.55,-1043.65 1188.55,-983.65 744.55,-983.65"/>
<text text-anchor="start" x="755.55" y="-1003.85" font-family="Helvetica,sans-Serif" font-size="32.00" fill="#29235c">owner_id &#160;&#160;&#160;</text>
<text text-anchor="start" x="1035.33" y="-1004.85" font-family="Helvetica,sans-Serif" font-style="italic" font-size="32.00" fill="#29235c">INTEGER</text>
<polygon fill="#e7e2dd" stroke="transparent" points="744.55,-923.65 744.55,-983.65 1188.55,-983.65 1188.55,-923.65 744.55,-923.65"/>
<polygon fill="none" stroke="#29235c" points="744.55,-923.65 744.55,-983.65 1188.55,-983.65 1188.55,-923.65 744.55,-923.65"/>
<text text-anchor="start" x="755.55" y="-943.85" font-family="Helvetica,sans-Serif" font-size="32.00" fill="#29235c">walker_id &#160;&#160;&#160;</text>
<text text-anchor="start" x="1035.33" y="-944.85" font-family="Helvetica,sans-Serif" font-style="italic" font-size="32.00" fill="#29235c">INTEGER</text>
<polygon fill="#e7e2dd" stroke="transparent" points="744.55,-863.65 744.55,-923.65 1188.55,-923.65 1188.55,-863.65 744.55,-863.65"/>
<polygon fill="none" stroke="#29235c" points="744.55,-863.65 744.55,-923.65 1188.55,-923.65 1188.55,-863.65 744.55,-863.65"/>
<text text-anchor="start" x="755.33" y="-883.85" font-family="Helvetica,sans-Serif" font-size="32.00" fill="#29235c">scheduled_date &#160;&#160;&#160;</text>
<text text-anchor="start" x="1016.17" y="-884.85" font-family="Helvetica,sans-Serif" font-style="italic" font-size="32.00" fill="#29235c">DATETIME</text>
<polygon fill="#e7e2dd" stroke="transparent" points="744.55,-803.65 744.55,-863.65 1188.55,-863.65 1188.55,-803.65 744.55,-803.65"/>
<polygon fill="none" stroke="#29235c" points="744.55,-803.65 744.55,-863.65 1188.55,-863.65 1188.55,-803.65 744.55,-803.65"/>
<text text-anchor="start" x="755.55" y="-823.85" font-family="Helvetica,sans-Serif" font-size="32.00" fill="#29235c">time_slot &#160;&#160;&#160;</text>
<text text-anchor="start" x="1021.13" y="-824.85" font-family="Helvetica,sans-Serif" font-style="italic" font-size="32.00" fill="#29235c">VARCHAR</text>
<polygon fill="#e7e2dd" stroke="transparent" points="744.55,-743.65 744.55,-803.65 1188.55,-803.65 1188.55,-743.65 744.55,-743.65"/>
<polygon fill="none" stroke="#29235c" points="744.55,-743.65 744.55,-803.65 1188.55,-803.65 1188.55,-743.65 744.55,-743.65"/>
<text text-anchor="start" x="755.55" y="-763.85" font-family="Helvetica,sans-Serif" font-size="32.00" fill="#29235c">status &#160;&#160;&#160;</text>
<text text-anchor="start" x="1021.13" y="-764.85" font-family="Helvetica,sans-Serif" font-style="italic" font-size="32.00" fill="#29235c">VARCHAR</text>
<polygon fill="#e7e2dd" stroke="transparent" points="744.55,-683.65 744.55,-743.65 1188.55,-743.65 1188.55,-683.65 744.55,-683.65"/>
<polygon fill="none" stroke="#29235c" points="744.55,-683.65 744.55,-743.65 1188.55,-743.65 1188.55,-683.65 744.55,-683.65"/>
<text text-anchor="start" x="755.55" y="-703.85" font-family="Helvetica,sans-Serif" font-size="32.00" fill="#29235c">created_date &#160;&#160;&#160;</text>
<text text-anchor="start" x="1015.79" y="-704.85" font-family="Helvetica,sans-Serif" font-style="italic" font-size="32.00" fill="#29235c">DATETIME</text>
<polygon fill="#e7e2dd" stroke="transparent" points="744.55,-623.65 744.55,-683.65 1188.55,-683.65 1188.55,-623.65 744.55,-623.65"/>
<polygon fill="none" stroke="#29235c" points="744.55,-623.65 744.55,-683.65 1188.55,-683.65 1188.55,-623.65 744.55,-623.65"/>
<text text-anchor="start" x="755.55" y="-643.85" font-family="Helvetica,sans-Serif" font-size="32.00" fill="#29235c">updated_date &#160;&#160;&#160;</text>
<text text-anchor="start" x="1015.79" y="-644.85" font-family="Helvetica,sans-Serif" font-style="italic" font-size="32.00" fill="#29235c">DATETIME</text>
<polygon fill="#e7e2dd" stroke="transparent" points="744.55,-563.65 744.55,-623.65 1188.55,-623.65 1188.55,-563.65 744.55,-563.65"/>
<polygon fill="none" stroke="#29235c" points="744.55,-563.65 744.55,-623.65 1188.55,-623.65 1188.55,-563.65 744.55,-563.65"/>
<text text-anchor="start" x="755.55" y="-583.85" font-family="Helvetica,sans-Serif" font-size="32.00" fill="#29235c">created_by &#160;&#160;&#160;</text>
<text text-anchor="start" x="1021.13" y="-584.85" font-family="Helvetica,sans-Serif" font-style="italic" font-size="32.00" fill="#29235c">VARCHAR</text>
<polygon fill="none" stroke="#29235c" stroke-width="2" points="743.55,-562.65 743.55,-1164.65 1189.55,-1164.65 1189.55,-562.65 743.55,-562.65"/>
</g>
<!-- Payment&#45;&gt;WalkRequest -->
<!-- Payment&#45;&gt;WalkRequest -->
<g id="edge4" class="edge">
<title>Payment:e&#45;&gt;WalkRequest:w</title>
<path fill="none" stroke="#29235c" stroke-width="3" d="M522.88,-1013.65C621.05,-1013.65 640.63,-1069.62 733.42,-1073.45"/>
<polygon fill="#29235c" stroke="#29235c" stroke-width="3" points="733.48,-1076.95 743.55,-1073.65 733.63,-1069.95 733.48,-1076.95"/>
<text text-anchor="middle" x="737.33" y="-1083.25" font-family="Helvetica,sans-Serif" font-size="32.00" fill="#29235c">*</text>
<text text-anchor="middle" x="531.78" y="-1023.25" font-family="Helvetica,sans-Serif" font-size="32.00" fill="#29235c">1</text>
</g>
<!-- WalkRequest&#45;&gt;Owner -->
<!-- WalkRequest&#45;&gt;Owner -->
<g id="edge6" class="edge">
<title>WalkRequest:e&#45;&gt;Owner:w</title>
<path fill="none" stroke="#29235c" stroke-width="3" d="M1189.55,-1013.65C1401.86,-1013.65 1251.31,-1915.86 1451.92,-1944.93"/>
<polygon fill="#29235c" stroke="#29235c" stroke-width="3" points="1451.84,-1948.44 1462.06,-1945.65 1452.33,-1941.45 1451.84,-1948.44"/>
<text text-anchor="middle" x="1468.28" y="-1916.85" font-family="Helvetica,sans-Serif" font-size="32.00" fill="#29235c">*</text>
<text text-anchor="middle" x="1180.66" y="-1023.25" font-family="Helvetica,sans-Serif" font-size="32.00" fill="#29235c">1</text>
</g>
<!-- Walker -->
<g id="Walker" class="node">
<title>Walker</title>
<ellipse fill="none" stroke="black" stroke-width="0" cx="1670.06" cy="-681.65" rx="350.95" ry="681.8"/>
<polygon fill="#1d71b8" stroke="transparent" points="1424.06,-1101.65 1424.06,-1161.65 1916.06,-1161.65 1916.06,-1101.65 1424.06,-1101.65"/>
<polygon fill="none" stroke="#29235c" points="1424.06,-1101.65 1424.06,-1161.65 1916.06,-1161.65 1916.06,-1101.65 1424.06,-1101.65"/>
<text text-anchor="start" x="1558.04" y="-1122.85" font-family="Helvetica,sans-Serif" font-weight="bold" font-size="32.00" fill="#ffffff"> &#160;&#160;&#160;&#160;&#160;&#160;Walker &#160;&#160;&#160;&#160;&#160;&#160;</text>
<polygon fill="#e7e2dd" stroke="transparent" points="1424.06,-1041.65 1424.06,-1101.65 1916.06,-1101.65 1916.06,-1041.65 1424.06,-1041.65"/>
<polygon fill="none" stroke="#29235c" points="1424.06,-1041.65 1424.06,-1101.65 1916.06,-1101.65 1916.06,-1041.65 1424.06,-1041.65"/>
<text text-anchor="start" x="1435.06" y="-1062.85" font-family="Helvetica,sans-Serif" font-weight="bold" font-size="32.00" fill="#29235c">id</text>
<text text-anchor="start" x="1459.95" y="-1062.85" font-family="Helvetica,sans-Serif" font-size="32.00" fill="#29235c"> &#160;&#160;&#160;</text>
<text text-anchor="start" x="1762.84" y="-1062.85" font-family="Helvetica,sans-Serif" font-style="italic" font-size="32.00" fill="#29235c">INTEGER</text>
<polygon fill="#e7e2dd" stroke="transparent" points="1424.06,-981.65 1424.06,-1041.65 1916.06,-1041.65 1916.06,-981.65 1424.06,-981.65"/>
<polygon fill="none" stroke="#29235c" points="1424.06,-981.65 1424.06,-1041.65 1916.06,-1041.65 1916.06,-981.65 1424.06,-981.65"/>
<text text-anchor="start" x="1435.06" y="-1001.85" font-family="Helvetica,sans-Serif" font-size="32.00" fill="#29235c">first_name &#160;&#160;&#160;</text>
<text text-anchor="start" x="1748.64" y="-1002.85" font-family="Helvetica,sans-Serif" font-style="italic" font-size="32.00" fill="#29235c">VARCHAR</text>
<polygon fill="#e7e2dd" stroke="transparent" points="1424.06,-921.65 1424.06,-981.65 1916.06,-981.65 1916.06,-921.65 1424.06,-921.65"/>
<polygon fill="none" stroke="#29235c" points="1424.06,-921.65 1424.06,-981.65 1916.06,-981.65 1916.06,-921.65 1424.06,-921.65"/>
<text text-anchor="start" x="1435.06" y="-941.85" font-family="Helvetica,sans-Serif" font-size="32.00" fill="#29235c">last_name &#160;&#160;&#160;</text>
<text text-anchor="start" x="1748.64" y="-942.85" font-family="Helvetica,sans-Serif" font-style="italic" font-size="32.00" fill="#29235c">VARCHAR</text>
<polygon fill="#e7e2dd" stroke="transparent" points="1424.06,-861.65 1424.06,-921.65 1916.06,-921.65 1916.06,-861.65 1424.06,-861.65"/>
<polygon fill="none" stroke="#29235c" points="1424.06,-861.65 1424.06,-921.65 1916.06,-921.65 1916.06,-861.65 1424.06,-861.65"/>
<text text-anchor="start" x="1435.06" y="-881.85" font-family="Helvetica,sans-Serif" font-size="32.00" fill="#29235c">postal_code &#160;&#160;&#160;</text>
<text text-anchor="start" x="1748.64" y="-882.85" font-family="Helvetica,sans-Serif" font-style="italic" font-size="32.00" fill="#29235c">VARCHAR</text>
<polygon fill="#e7e2dd" stroke="transparent" points="1424.06,-801.65 1424.06,-861.65 1916.06,-861.65 1916.06,-801.65 1424.06,-801.65"/>
<polygon fill="none" stroke="#29235c" points="1424.06,-801.65 1424.06,-861.65 1916.06,-861.65 1916.06,-801.65 1424.06,-801.65"/>
<text text-anchor="start" x="1435.06" y="-821.85" font-family="Helvetica,sans-Serif" font-size="32.00" fill="#29235c">phone &#160;&#160;&#160;</text>
<text text-anchor="start" x="1748.64" y="-822.85" font-family="Helvetica,sans-Serif" font-style="italic" font-size="32.00" fill="#29235c">VARCHAR</text>
<polygon fill="#e7e2dd" stroke="transparent" points="1424.06,-741.65 1424.06,-801.65 1916.06,-801.65 1916.06,-741.65 1424.06,-741.65"/>
<polygon fill="none" stroke="#29235c" points="1424.06,-741.65 1424.06,-801.65 1916.06,-801.65 1916.06,-741.65 1424.06,-741.65"/>
<text text-anchor="start" x="1435.06" y="-761.85" font-family="Helvetica,sans-Serif" font-size="32.00" fill="#29235c">email &#160;&#160;&#160;</text>
<text text-anchor="start" x="1748.64" y="-762.85" font-family="Helvetica,sans-Serif" font-style="italic" font-size="32.00" fill="#29235c">VARCHAR</text>
<polygon fill="#e7e2dd" stroke="transparent" points="1424.06,-681.65 1424.06,-741.65 1916.06,-741.65 1916.06,-681.65 1424.06,-681.65"/>
<polygon fill="none" stroke="#29235c" points="1424.06,-681.65 1424.06,-741.65 1916.06,-741.65 1916.06,-681.65 1424.06,-681.65"/>
<text text-anchor="start" x="1434.58" y="-701.85" font-family="Helvetica,sans-Serif" font-size="32.00" fill="#29235c">max_dogs_per_walk &#160;&#160;&#160;</text>
<text text-anchor="start" x="1762.95" y="-702.85" font-family="Helvetica,sans-Serif" font-style="italic" font-size="32.00" fill="#29235c">INTEGER</text>
<polygon fill="#e7e2dd" stroke="transparent" points="1424.06,-621.65 1424.06,-681.65 1916.06,-681.65 1916.06,-621.65 1424.06,-621.65"/>
<polygon fill="none" stroke="#29235c" points="1424.06,-621.65 1424.06,-681.65 1916.06,-681.65 1916.06,-621.65 1424.06,-621.65"/>
<text text-anchor="start" x="1435.06" y="-641.85" font-family="Helvetica,sans-Serif" font-size="32.00" fill="#29235c">small_dog_price &#160;&#160;&#160;</text>
<text text-anchor="start" x="1801.94" y="-642.85" font-family="Helvetica,sans-Serif" font-style="italic" font-size="32.00" fill="#29235c">FLOAT</text>
<polygon fill="#e7e2dd" stroke="transparent" points="1424.06,-561.65 1424.06,-621.65 1916.06,-621.65 1916.06,-561.65 1424.06,-561.65"/>
<polygon fill="none" stroke="#29235c" points="1424.06,-561.65 1424.06,-621.65 1916.06,-621.65 1916.06,-561.65 1424.06,-561.65"/>
<text text-anchor="start" x="1435.06" y="-581.85" font-family="Helvetica,sans-Serif" font-size="32.00" fill="#29235c">medium_dog_price &#160;&#160;&#160;</text>
<text text-anchor="start" x="1801.94" y="-582.85" font-family="Helvetica,sans-Serif" font-style="italic" font-size="32.00" fill="#29235c">FLOAT</text>
<polygon fill="#e7e2dd" stroke="transparent" points="1424.06,-501.65 1424.06,-561.65 1916.06,-561.65 1916.06,-501.65 1424.06,-501.65"/>
<polygon fill="none" stroke="#29235c" points="1424.06,-501.65 1424.06,-561.65 1916.06,-561.65 1916.06,-501.65 1424.06,-501.65"/>
<text text-anchor="start" x="1435.06" y="-521.85" font-family="Helvetica,sans-Serif" font-size="32.00" fill="#29235c">large_dog_price &#160;&#160;&#160;</text>
<text text-anchor="start" x="1801.94" y="-522.85" font-family="Helvetica,sans-Serif" font-style="italic" font-size="32.00" fill="#29235c">FLOAT</text>
<polygon fill="#e7e2dd" stroke="transparent" points="1424.06,-441.65 1424.06,-501.65 1916.06,-501.65 1916.06,-441.65 1424.06,-441.65"/>
<polygon fill="none" stroke="#29235c" points="1424.06,-441.65 1424.06,-501.65 1916.06,-501.65 1916.06,-441.65 1424.06,-441.65"/>
<text text-anchor="start" x="1435.06" y="-461.85" font-family="Helvetica,sans-Serif" font-size="32.00" fill="#29235c">available_days &#160;&#160;&#160;</text>
<text text-anchor="start" x="1748.64" y="-462.85" font-family="Helvetica,sans-Serif" font-style="italic" font-size="32.00" fill="#29235c">VARCHAR</text>
<polygon fill="#e7e2dd" stroke="transparent" points="1424.06,-381.65 1424.06,-441.65 1916.06,-441.65 1916.06,-381.65 1424.06,-381.65"/>
<polygon fill="none" stroke="#29235c" points="1424.06,-381.65 1424.06,-441.65 1916.06,-441.65 1916.06,-381.65 1424.06,-381.65"/>
<text text-anchor="start" x="1435.06" y="-401.85" font-family="Helvetica,sans-Serif" font-size="32.00" fill="#29235c">available_times &#160;&#160;&#160;</text>
<text text-anchor="start" x="1748.64" y="-402.85" font-family="Helvetica,sans-Serif" font-style="italic" font-size="32.00" fill="#29235c">VARCHAR</text>
<polygon fill="#e7e2dd" stroke="transparent" points="1424.06,-321.65 1424.06,-381.65 1916.06,-381.65 1916.06,-321.65 1424.06,-321.65"/>
<polygon fill="none" stroke="#29235c" points="1424.06,-321.65 1424.06,-381.65 1916.06,-381.65 1916.06,-321.65 1424.06,-321.65"/>
<text text-anchor="start" x="1435.06" y="-341.85" font-family="Helvetica,sans-Serif" font-size="32.00" fill="#29235c">created_date &#160;&#160;&#160;</text>
<text text-anchor="start" x="1743.29" y="-342.85" font-family="Helvetica,sans-Serif" font-style="italic" font-size="32.00" fill="#29235c">DATETIME</text>
<polygon fill="#e7e2dd" stroke="transparent" points="1424.06,-261.65 1424.06,-321.65 1916.06,-321.65 1916.06,-261.65 1424.06,-261.65"/>
<polygon fill="none" stroke="#29235c" points="1424.06,-261.65 1424.06,-321.65 1916.06,-321.65 1916.06,-261.65 1424.06,-261.65"/>
<text text-anchor="start" x="1435.06" y="-281.85" font-family="Helvetica,sans-Serif" font-size="32.00" fill="#29235c">updated_date &#160;&#160;&#160;</text>
<text text-anchor="start" x="1743.29" y="-282.85" font-family="Helvetica,sans-Serif" font-style="italic" font-size="32.00" fill="#29235c">DATETIME</text>
<polygon fill="#e7e2dd" stroke="transparent" points="1424.06,-201.65 1424.06,-261.65 1916.06,-261.65 1916.06,-201.65 1424.06,-201.65"/>
<polygon fill="none" stroke="#29235c" points="1424.06,-201.65 1424.06,-261.65 1916.06,-261.65 1916.06,-201.65 1424.06,-201.65"/>
<text text-anchor="start" x="1435.06" y="-221.85" font-family="Helvetica,sans-Serif" font-size="32.00" fill="#29235c">created_by &#160;&#160;&#160;</text>
<text text-anchor="start" x="1748.64" y="-222.85" font-family="Helvetica,sans-Serif" font-style="italic" font-size="32.00" fill="#29235c">VARCHAR</text>
<polygon fill="none" stroke="#29235c" stroke-width="2" points="1423.06,-200.65 1423.06,-1162.65 1917.06,-1162.65 1917.06,-200.65 1423.06,-200.65"/>
</g>
<!-- WalkRequest&#45;&gt;Walker -->
<!-- WalkRequest&#45;&gt;Walker -->
<g id="edge8" class="edge">
<title>WalkRequest:e&#45;&gt;Walker:w</title>
<path fill="none" stroke="#29235c" stroke-width="3" d="M1189.55,-953.65C1302.31,-953.65 1306.62,-1064.61 1412.81,-1071.33"/>
<polygon fill="#29235c" stroke="#29235c" stroke-width="3" points="1412.96,-1074.84 1423.06,-1071.65 1413.17,-1067.84 1412.96,-1074.84"/>
<text text-anchor="middle" x="1429.28" y="-1081.25" font-family="Helvetica,sans-Serif" font-size="32.00" fill="#29235c">*</text>
<text text-anchor="middle" x="1180.66" y="-963.25" font-family="Helvetica,sans-Serif" font-size="32.00" fill="#29235c">1</text>
</g>
</g>
</svg>
